Coordinates
version=1
nRows=9
nColumns=24
inDegrees=yes

Units are S.I. units (second, meters, Newtons, ...)
Angles are in degrees.

endheader
time	pelvis_tilt	pelvis_list	pelvis_rotation	pelvis_tx	pelvis_ty	pelvis_tz	hip_flexion_r	hip_adduction_r	hip_rotation_r	knee_angle_r	ankle_angle_r	subtalar_angle_r	mtp_angle_r	hip_flexion_l	hip_adduction_l	hip_rotation_l	knee_angle_l	ankle_angle_l	subtalar_angle_l	mtp_angle_l	lumbar_extension	lumbar_bending	lumbar_rotation
      1.32550000	     -0.58692808	      3.35683704	     -1.89204886	      0.22276153	      1.06434174	      0.32923258	     15.56388325	     -5.32138478	     -3.40291082	    -67.46682981	     -6.20428329	    -10.87266028	      3.24009313	      8.58964838	      8.06279101	     -4.98009720	     -8.01767640	      0.91114666	     -3.16380715	      0.91977613	      6.14565653	     -1.23206237	     -0.81040930
      1.32966667	     -0.60155680	      3.34437227	     -1.89531028	      0.22778691	      1.06489213	      0.32903391	     16.21684991	     -5.27485184	     -3.23797990	    -67.51794307	     -5.31361974	    -11.22651167	      3.16682279	      8.21506700	      8.07783112	     -5.05873865	     -7.84762259	      1.14690717	     -3.13447491	      0.88668486	      6.15590643	     -1.22504480	     -0.87041468
      1.33383333	     -0.61420321	      3.31924476	     -1.91607025	      0.23276937	      1.06543333	      0.32883952	     16.85941647	     -5.20589568	     -3.03812376	    -67.49251196	     -4.68305850	    -11.41538740	      3.09459299	      7.82267028	      8.07999035	     -5.03808256	     -7.64165828	      1.30709892	     -3.04323026	      0.85284206	      6.15112356	     -1.17131590	     -0.93056457
      1.33800000	     -0.62173900	      3.26392819	     -1.90917984	      0.23778719	      1.06600671	      0.32868423	     17.45952832	     -5.09638550	     -2.85133934	    -67.34234384	     -4.41729147	    -11.50333310	      3.07467543	      7.40975482	      8.04430926	     -4.93421849	     -7.41889600	      1.36661021	     -2.97046617	      0.84413821	      6.08303414	     -1.11253329	     -0.96937218
      1.34216667	     -0.60783848	      3.26117449	     -1.93848198	      0.24270627	      1.06653386	      0.32847239	     18.05744448	     -5.04541702	     -2.65932631	    -67.24177695	     -3.49631527	    -11.72261158	      3.00486015	      6.98889741	      8.07509859	     -4.96448959	     -7.19859777	      1.60169506	     -2.90834588	      0.80843959	      6.09446489	     -1.06019891	     -1.03838344
      1.34633333	     -0.60572534	      3.24636232	     -1.97030943	      0.24765216	      1.06704306	      0.32825159	     18.64534040	     -4.97698509	     -2.44491593	    -67.02971403	     -3.02339884	    -11.78698758	      2.95825298	      6.55673559	      8.09612329	     -4.87178726	     -6.93443680	      1.71216257	     -2.80215758	      0.78415825	      6.07283767	     -0.97269762	     -1.09608943
      1.35050000	     -0.60054533	      3.21658025	     -1.98528336	      0.25263020	      1.06755707	      0.32810427	     19.20166511	     -4.88015032	     -2.24761394	    -66.75340469	     -2.45816146	    -11.85979079	      2.91319331	      6.11941425	      8.09109589	     -4.81579665	     -6.67611002	      1.84885586	     -2.72904667	      0.75913288	      6.05371155	     -0.91708820	     -1.15052749
      1.35466667	     -0.62212814	      3.15012462	     -1.95077194	      0.25758410	      1.06804263	      0.32802965	     19.75150857	     -4.73433177	     -2.08155921	    -66.37306549	     -2.12298377	    -11.89128626	      2.89049656	      5.71856786	      8.03110754	     -4.75620561	     -6.44793331	      1.92683988	     -2.68200517	      0.74609904	      5.98857974	     -0.89876884	     -1.18497491
      1.35883333	     -0.59977549	      3.13965882	     -1.95227194	      0.26250708	      1.06851608	      0.32779331	     20.26383514	     -4.66657823	     -1.90937131	    -66.03195346	     -1.16575506	    -11.81205232	      2.79415421	      5.26705287	      8.05862127	     -4.75534728	     -6.18347657	      2.15460490	     -2.59323141	      0.68492583	      5.98199628	     -0.84086108	     -1.27574327
